/* XPM */
static char *ec27974d3f6e4383f0624219743f99c7UEbyBxow8OwQjTLM[] = {
/* columns rows colors chars-per-pixel */
"32 32 147 2 ",
"   c #25221D",
".  c #2C2924",
"X  c #2E2B26",
"o  c #2F2C27",
"O  c #302D28",
"+  c #322F2A",
"@  c #33302B",
"#  c #34312C",
"$  c #35322D",
"%  c #36332E",
"&  c #37342F",
"*  c #383530",
"=  c #393631",
"-  c #3A3732",
";  c #3B3833",
":  c #3C3934",
">  c #3D3A35",
",  c #3E3B36",
"<  c #3F3C37",
"1  c #403D38",
"2  c #413E39",
"3  c #423F3A",
"4  c #43403B",
"5  c #44413C",
"6  c #45423D",
"7  c #46433E",
"8  c #47443F",
"9  c #484540",
"0  c #494641",
"q  c #4A4742",
"w  c #4B4843",
"e  c #4C4944",
"r  c #4D4A45",
"t  c #4E4B46",
"y  c #4F4C47",
"u  c #504D48",
"i  c #514E49",
"p  c #524F4A",
"a  c #53504B",
"s  c #54514C",
"d  c #55524D",
"f  c #56534E",
"g  c #57544F",
"h  c #585550",
"j  c #595651",
"k  c #5A5752",
"l  c #5B5853",
"z  c #5C5954",
"x  c #5D5A55",
"c  c #5E5B56",
"v  c #5F5C57",
"b  c #605D58",
"n  c #615E59",
"m  c #625F5A",
"M  c #63605B",
"N  c #64615C",
"B  c #65625D",
"V  c #66635E",
"C  c #67645F",
"Z  c #686560",
"A  c #696661",
"S  c #6A6762",
"D  c #6B6863",
"F  c #6C6964",
"G  c #6D6A65",
"H  c #6E6B66",
"J  c #6F6C67",
"K  c #706D68",
"L  c #716E69",
"P  c #726F6A",
"I  c #73706B",
"U  c #74716C",
"Y  c #75726D",
"T  c #76736E",
"R  c #77746F",
"E  c #787570",
"W  c #797671",
"Q  c #7A7772",
"!  c #7B7873",
"~  c #7C7974",
"^  c #7D7A75",
"/  c #7E7B76",
"(  c #7F7C77",
")  c #807D78",
"_  c #817E79",
"`  c #827F7A",
"'  c #83807B",
"]  c #84817C",
"[  c #85827D",
"{  c #86837E",
"}  c #87847F",
"|  c #888580",
" . c #898681",
".. c #8A8782",
"X. c #8B8883",
"o. c #8C8984",
"O. c #8D8A85",
"+. c #8E8B86",
"@. c #8F8C87",
"#. c #908D88",
"$. c #918E89",
"%. c #928F8A",
"&. c #93908B",
"*. c #94918C",
"=. c #95928D",
"-. c #96938E",
";. c #97948F",
":. c #989590",
">. c #999691",
",. c #9A9792",
"<. c #9B9893",
"1. c #9C9994",
"2. c #9D9A95",
"3. c #9E9B96",
"4. c #9F9C97",
"5. c #A09D98",
"6. c #A19E99",
"7. c #A29F9A",
"8. c #A3A09B",
"9. c #A4A19C",
"0. c #A5A29D",
"q. c #A6A39E",
"w. c #A7A49F",
"e. c #A8A5A0",
"r. c #A9A6A1",
"t. c #AAA7A2",
"y. c #ABA8A3",
"u. c #ACA9A4",
"i. c #ADAAA5",
"p. c #AEABA6",
"a. c #AFACA7",
"s. c #B0ADA8",
"d. c #B1AEA9",
"f. c #B2AFAA",
"g. c #B3B0AB",
"h. c #B4B1AC",
"j. c #B5B2AD",
"k. c #B6B3AE",
"l. c #B7B4AF",
"z. c #B8B5B0",
"x. c #B9B6B1",
"c. c #BAB7B2",
"v. c #BBB8B3",
"b. c #BCB9B4",
"n. c #BFBCB7",
"m. c #C2BFBA",
"M. c #C5C2BD",
/* pixels */
"# A e.w.] < Q e.e.2.Q d } ;.u.2.^ Q D B ,.*.- Y e.u.6.0 w P Y r ",
"I w.6.h.,.; $.2.e.0.h., R 0.( ] r a c r g 0 c l *.2.e.J A 2.6.Y ",
"2.6.,.2.C , r X.0.*.C y w m l J ) u R a.$.c A , Q <.8.;.1  .m d ",
"$.O.*.j A a.J l $.( 0 w.A 1 ;.e.b.G ^ 6.h.j 0 ) w j X.Y r 1 c *.",
"j c r 7 0.g.e.l 7 d *.h.@.u w.u.*.u *.2.*.u $.x.2.j u J 4.m & 0 ",
"] P o ] n.*.e.u.; ] x.u.6.B Y R c - m ;.j A u.,.l.*., j g P C $.",
"f.0.d G ,.h.6.,.g e.;.0.*.y j G @.2.d 7 u O.@.a.6.&.c D m A ,.0.",
"*.0.$.0 ;.*.u.Q m *.e.0.&.0  .a.0.a.M.7 c @.,.O.0.] B m.P # c Q ",
"u B ,.A Y $.2.P c e.&.2.O.r *.0.e.e.4.g & I $.O.,.) P 6.A ]  .# ",
"P g A 0 7  .G 7 j A ;.] 0 c ;.&.w.a.X.l ,.0 j O.C - O.@.c u.R B ",
"h.8.;. .1 - A m a u @ d M u ) $.&.0.B $.u.} , r c # u 8 r Q j ) ",
"0.e.8.g.m m u.f.y.2.J B h.] u ] *.P c l.w.2.r ] 2.j B ^ v O ^ ,.",
";.6.f. .#  .O.*.e.h.,.j ) c d a m ;  .2.u.j R x.0.A ,.w.h.u Y 6.",
"*.,.8.l 0 M O.2.,.@.u , c @ ] u.Q y ( ,.O.d 8.w.] y w.g.0.c O.] ",
"2.O.P G 6.j ] ) B j ^ *.v.' , $.2.a - J 0 4 J Q u Q ,.X.Q 1 P @.",
"r B u 6.h.] 1 u m ;.u.e.u.,., 0 m G X.< G u d c 8 u j r y 0 , w ",
",.w ! ,.u.^ - 7 O.2.0.6.6.G w  .8.e.h.*.@ Q y.e.6.8 ^ ;.e.0.d j ",
"0.*.B 0.Y r G g B O.' u.( a X.6.w.6.8.0.w ! w.e.2.D e.6.e.0.g Q ",
"j c O l m ' e.6.4 I 8.] 0 d &.2.g.y.0.&.0 c *.u.2.c O.2.x.O.# d ",
"O.] Y - O.b.6.a.@.< P u @ 8 ! 4.@.6.u.I A C Y  .C 0 Y X.O.m l O.",
"u.v.0.1 ] ,.,.;.$.)   0 6.G u c  .O.Q 7 ] $.0 r P B m j 1 0 *.0.",
"2.w.e.P D *.e.<.8.<.1 *.e.h.l.d . c j & j P # Q e.h.e.,.r 8 w.u.",
"u.8.h.] 7 Y B m c r 1  .4.u.<.m ' 6.} B ,.2.A d w.0.4.f.Y P $.O.",
"*.0.w.^ 7 u j A Y ^ v 8 @.&.X.j 2.h.8.l 8.<.g.M ^ 6.e.2.m Q } 6.",
"*.,.*.j P 8.g.u.e.f.e.G d  .u P w.2.w.m ^ $. .( 1 R Y M 1 I $.$.",
") ) C d 8.$.e.6.e.6.0.A - j y G ) 6.X.m , r u r - y g m 7 1 J G ",
"C P - 0 A ] $.*.,.) j , Q ,.j # d r B w 0 ;.*.6.Q v e.a.u.Y 1 c ",
"O.O.2.u 7 , d A 7 B m u m A u r O u 0.y , R 0.y.2.A *.$.y.} 4  .",
"P a g , $.] C u ! $.h.e.; r O.u.,.r v ] $.o c v  .J c Q B u v Q ",
"e.l.m j f.y.D 0 &.w.y.*.u $.g.0.6.u D 0.w.G I  .v 1 r ! o c 0.y.",
"0.6.a # ,.e.@.r a  .$.I Y a.e.w.w.0  .e.0.6.m ;.A 0  .u.c O.6.0.",
"$.B d G u  .m 1 B w a c O.u.8.w.@.r ) $.6.y.w - j u 0 B 7 m ! O."
};
